<svg width="78" height="78" viewBox="0 0 78 78" fill="none" xmlns="http://www.w3.org/2000/svg">
<circle cx="39" cy="39" r="39" fill="#2C2E36"/>
<path d="M53.5775 25.581C53.7564 25.3554 53.8686 25.0842 53.9013 24.7981C53.934 24.512 53.8859 24.2224 53.7625 23.9622C53.6375 23.6999 53.441 23.4782 53.1955 23.3227C52.95 23.1672 52.6656 23.0843 52.375 23.0835H24.625C24.3344 23.0843 24.0499 23.1672 23.8045 23.3227C23.559 23.4782 23.3624 23.6999 23.2375 23.9622C23.114 24.2224 23.066 24.512 23.0987 24.7981C23.1314 25.0842 23.2435 25.3554 23.4225 25.581L36.9583 42.5085V50.8335H28.0937C27.6848 50.8335 27.2927 50.9959 27.0036 51.285C26.7145 51.5742 26.552 51.9663 26.552 52.3752C26.552 52.784 26.7145 53.1762 27.0036 53.4653C27.2927 53.7544 27.6848 53.9168 28.0937 53.9168H48.9062C49.3151 53.9168 49.7072 53.7544 49.9963 53.4653C50.2855 53.1762 50.4479 52.784 50.4479 52.3752C50.4479 51.9663 50.2855 51.5742 49.9963 51.285C49.7072 50.9959 49.3151 50.8335 48.9062 50.8335H40.0416V42.5085L53.5775 25.581ZM27.8316 26.1668H49.1683L45.4683 30.7918H31.5933L27.8316 26.1668ZM38.5 39.5022L33.9983 33.8752H43.0016L38.5 39.5022Z" fill="white"/>
</svg>
