<svg width="78" height="78" viewBox="0 0 78 78" fill="none" xmlns="http://www.w3.org/2000/svg">
<circle cx="39" cy="39" r="39" fill="#2C2E36"/>
<path d="M23 49V39C23 35.0218 24.5804 31.2064 27.3934 28.3934C30.2064 25.5804 34.0218 24 38 24C41.9782 24 45.7936 25.5804 48.6066 28.3934C51.4196 31.2064 53 35.0218 53 39V49" stroke="white" stroke-width="2" stroke-linecap="round" stroke-linejoin="round"/>
<path d="M53 50.6668C53 51.5509 52.6488 52.3987 52.0237 53.0239C51.3986 53.649 50.5507 54.0002 49.6667 54.0002H48C47.1159 54.0002 46.2681 53.649 45.643 53.0239C45.0179 52.3987 44.6667 51.5509 44.6667 50.6668V45.6668C44.6667 44.7828 45.0179 43.9349 45.643 43.3098C46.2681 42.6847 47.1159 42.3335 48 42.3335H53V50.6668ZM23 50.6668C23 51.5509 23.3512 52.3987 23.9763 53.0239C24.6014 53.649 25.4493 54.0002 26.3333 54.0002H28C28.8841 54.0002 29.7319 53.649 30.357 53.0239C30.9821 52.3987 31.3333 51.5509 31.3333 50.6668V45.6668C31.3333 44.7828 30.9821 43.9349 30.357 43.3098C29.7319 42.6847 28.8841 42.3335 28 42.3335H23V50.6668Z" stroke="white" stroke-width="2" stroke-linecap="round" stroke-linejoin="round"/>
</svg>
